<svg xmlns="http://www.w3.org/2000/svg" xmlns:xlink="http://www.w3.org/1999/xlink" width="400" zoomAndPan="magnify" viewBox="0 0 300 299.999988" height="400" preserveAspectRatio="xMidYMid meet" version="1.0"><defs><clipPath id="0566461909"><path d="M 232.53125 117.265625 L 265.898438 117.265625 L 265.898438 150.921875 L 232.53125 150.921875 Z M 232.53125 117.265625 " clip-rule="nonzero"/></clipPath><clipPath id="c194aa716d"><path d="M 35.660156 135 L 63 135 L 63 164 L 35.660156 164 Z M 35.660156 135 " clip-rule="nonzero"/></clipPath></defs><path fill="#c8cdd2" d="M 123.238281 234.789062 C 126.5625 243.753906 130.679688 250.863281 135.335938 255.503906 C 123.1875 251.5 112.523438 241.972656 104.707031 228.890625 C 110.492188 231.34375 116.691406 233.335938 123.238281 234.789062 " fill-opacity="1" fill-rule="nonzero"/><path fill="#ecf0f0" d="M 146.203125 257.210938 L 150.234375 257.210938 L 150.269531 257.417969 C 149.585938 257.550781 148.902344 257.621094 148.222656 257.621094 C 140.503906 257.621094 133.355469 249.226562 127.980469 235.714844 C 133.835938 236.734375 139.945312 237.3125 146.203125 237.433594 L 146.203125 257.210938 " fill-opacity="1" fill-rule="nonzero"/><path fill="#c8cdd2" d="M 168.476562 235.714844 C 163.574219 248.015625 157.210938 256.082031 150.269531 257.417969 L 150.234375 257.210938 L 150.234375 237.433594 C 156.511719 237.3125 162.605469 236.734375 168.476562 235.714844 " fill-opacity="1" fill-rule="nonzero"/><path fill="#c8cdd2" d="M 146.203125 204.355469 L 146.203125 233.414062 C 139.347656 233.292969 132.707031 232.574219 126.34375 231.328125 C 123.527344 223.132812 121.328125 213.425781 119.933594 202.78125 C 128.441406 203.753906 137.347656 204.28125 146.203125 204.355469 " fill-opacity="1" fill-rule="nonzero"/><path fill="#ecf0f0" d="M 176.527344 202.78125 C 175.128906 213.425781 172.910156 223.132812 170.09375 231.328125 C 163.765625 232.574219 157.109375 233.292969 150.234375 233.414062 L 150.234375 204.355469 C 159.125 204.28125 168.011719 203.753906 176.527344 202.78125 " fill-opacity="1" fill-rule="nonzero"/><path fill="#c8cdd2" d="M 203.285156 197.867188 C 201.503906 206.992188 198.660156 215.476562 194.921875 223.035156 C 188.777344 226.070312 182.007812 228.527344 174.769531 230.285156 C 177.414062 222.113281 179.445312 212.644531 180.726562 202.253906 C 188.792969 201.175781 196.441406 199.707031 203.285156 197.867188 " fill-opacity="1" fill-rule="nonzero"/><path fill="#c8cdd2" d="M 197.890625 225.984375 C 209.390625 220.066406 218.777344 212.164062 225.019531 202.949219 C 216.863281 226.394531 198.285156 244.976562 174.851562 253.136719 C 184.054688 246.886719 191.96875 237.503906 197.890625 225.984375 " fill-opacity="1" fill-rule="nonzero"/><path fill="#ecf0f0" d="M 207.597656 196.621094 C 216.488281 193.875 223.691406 190.441406 228.226562 186.402344 C 224.851562 199.707031 214.886719 211.429688 200.769531 219.847656 C 203.828125 212.710938 206.152344 204.914062 207.597656 196.621094 " fill-opacity="1" fill-rule="nonzero"/><path fill="#c8cdd2" d="M 209.320312 178.347656 L 229.179688 178.347656 C 227.578125 183.34375 220.175781 188.332031 208.261719 192.285156 C 208.878906 187.765625 209.238281 183.105469 209.320312 178.347656 " fill-opacity="1" fill-rule="nonzero"/><path fill="#c8cdd2" d="M 229.179688 174.320312 L 209.320312 174.320312 C 209.238281 169.574219 208.878906 164.914062 208.261719 160.378906 C 220.175781 164.355469 227.597656 169.335938 229.179688 174.320312 " fill-opacity="1" fill-rule="nonzero"/><path fill="#ecf0f0" d="M 182.246094 178.347656 L 205.296875 178.347656 C 205.191406 183.585938 204.765625 188.683594 204.019531 193.617188 C 197.464844 195.511719 189.785156 197.101562 181.167969 198.257812 C 181.816406 191.894531 182.175781 185.238281 182.246094 178.347656 " fill-opacity="1" fill-rule="nonzero"/><path fill="#c8cdd2" d="M 150.234375 178.347656 L 178.214844 178.347656 C 178.152344 185.394531 177.738281 192.234375 177.019531 198.769531 C 168.832031 199.707031 159.855469 200.257812 150.234375 200.320312 L 150.234375 178.347656 " fill-opacity="1" fill-rule="nonzero"/><path fill="#ecf0f0" d="M 178.214844 174.320312 L 150.234375 174.320312 L 150.234375 152.359375 C 159.855469 152.425781 168.832031 152.972656 177.019531 153.910156 C 177.738281 160.429688 178.152344 167.292969 178.214844 174.320312 " fill-opacity="1" fill-rule="nonzero"/><path fill="#c8cdd2" d="M 146.203125 152.359375 L 146.203125 174.320312 L 118.238281 174.320312 C 118.308594 167.292969 118.71875 160.429688 119.429688 153.910156 C 127.625 152.972656 136.597656 152.425781 146.203125 152.359375 " fill-opacity="1" fill-rule="nonzero"/><path fill="#ecf0f0" d="M 114.210938 178.347656 C 114.28125 185.238281 114.640625 191.894531 115.285156 198.257812 C 106.667969 197.101562 98.992188 195.511719 92.441406 193.617188 C 91.691406 188.683594 91.261719 183.585938 91.160156 178.347656 L 114.210938 178.347656 " fill-opacity="1" fill-rule="nonzero"/><path fill="#ecf0f0" d="M 98.570312 225.984375 C 104.488281 237.503906 112.402344 246.886719 121.597656 253.136719 C 98.175781 244.976562 79.59375 226.394531 71.4375 202.949219 C 77.679688 212.164062 87.066406 220.066406 98.570312 225.984375 " fill-opacity="1" fill-rule="nonzero"/><path fill="#c8cdd2" d="M 88.859375 196.621094 C 90.308594 204.914062 92.628906 212.695312 95.679688 219.847656 C 81.570312 211.429688 71.609375 199.707031 68.230469 186.402344 C 72.765625 190.441406 79.96875 193.875 88.859375 196.621094 " fill-opacity="1" fill-rule="nonzero"/><path fill="#c8cdd2" d="M 87.136719 178.347656 C 87.21875 183.105469 87.5625 187.765625 88.1875 192.285156 C 76.28125 188.332031 68.875 183.34375 67.269531 178.347656 L 87.136719 178.347656 " fill-opacity="1" fill-rule="nonzero"/><path fill="#ecf0f0" d="M 88.1875 160.378906 C 87.5625 164.914062 87.21875 169.574219 87.136719 174.320312 L 67.269531 174.320312 C 68.859375 169.335938 76.265625 164.355469 88.1875 160.378906 " fill-opacity="1" fill-rule="nonzero"/><path fill="#c8cdd2" d="M 121.683594 122.378906 C 119.042969 130.570312 117.007812 140.019531 115.730469 150.414062 C 107.660156 151.488281 100.019531 152.957031 93.175781 154.800781 C 94.933594 145.667969 97.800781 137.191406 101.535156 129.628906 C 107.679688 126.59375 114.453125 124.136719 121.683594 122.378906 " fill-opacity="1" fill-rule="nonzero"/><path fill="#ecf0f0" d="M 146.203125 119.273438 L 146.203125 148.3125 C 137.347656 148.402344 128.441406 148.933594 119.933594 149.898438 C 121.328125 139.257812 123.527344 129.542969 126.34375 121.355469 C 132.707031 120.113281 139.347656 119.390625 146.203125 119.273438 " fill-opacity="1" fill-rule="nonzero"/><path fill="#ecf0f0" d="M 194.921875 129.628906 C 198.660156 137.191406 201.503906 145.667969 203.285156 154.800781 C 196.441406 152.957031 188.792969 151.488281 180.726562 150.414062 C 179.445312 140.019531 177.414062 130.570312 174.769531 122.378906 C 182.007812 124.136719 188.777344 126.59375 194.921875 129.628906 " fill-opacity="1" fill-rule="nonzero"/><path fill="#ecf0f0" d="M 228.226562 166.269531 C 223.691406 162.222656 216.488281 158.789062 207.597656 156.042969 C 206.152344 147.765625 203.828125 139.96875 200.769531 132.820312 C 214.886719 141.234375 224.851562 152.972656 228.226562 166.269531 " fill-opacity="1" fill-rule="nonzero"/><path fill="#ecf0f0" d="M 225.019531 149.714844 C 218.777344 140.519531 209.390625 132.605469 197.890625 126.679688 C 191.96875 115.175781 184.054688 105.792969 174.851562 99.550781 C 198.285156 107.6875 216.863281 126.269531 225.019531 149.714844 " fill-opacity="1" fill-rule="nonzero"/><path fill="#c8cdd2" d="M 150.234375 95.261719 C 157.175781 96.582031 163.5625 104.617188 168.476562 116.957031 C 162.605469 115.929688 156.511719 115.347656 150.234375 115.246094 L 150.234375 95.261719 " fill-opacity="1" fill-rule="nonzero"/><path fill="#c8cdd2" d="M 146.203125 95.261719 L 146.203125 115.246094 C 139.945312 115.347656 133.835938 115.929688 127.980469 116.957031 C 132.878906 104.617188 139.261719 96.582031 146.203125 95.261719 " fill-opacity="1" fill-rule="nonzero"/><path fill="#ecf0f0" d="M 135.335938 97.160156 C 130.679688 101.800781 126.5625 108.917969 123.238281 117.886719 C 116.691406 119.320312 110.492188 121.320312 104.707031 123.777344 C 112.523438 110.691406 123.1875 101.171875 135.335938 97.160156 " fill-opacity="1" fill-rule="nonzero"/><path fill="#ecf0f0" d="M 121.597656 99.550781 C 112.402344 105.792969 104.488281 115.175781 98.570312 126.679688 C 87.066406 132.605469 77.679688 140.519531 71.4375 149.714844 C 79.59375 126.269531 98.175781 107.6875 121.597656 99.550781 " fill-opacity="1" fill-rule="nonzero"/><path fill="#c8cdd2" d="M 181.167969 154.425781 C 189.785156 155.582031 197.464844 157.171875 204.019531 159.066406 C 204.765625 164 205.191406 169.097656 205.296875 174.320312 L 182.246094 174.320312 C 182.175781 167.445312 181.816406 160.773438 181.167969 154.425781 " fill-opacity="1" fill-rule="nonzero"/><path fill="#a5a5a5" d="M 88.1875 192.285156 C 87.5625 187.765625 87.21875 183.105469 87.136719 178.347656 L 67.269531 178.347656 C 68.875 183.34375 76.28125 188.332031 88.1875 192.285156 Z M 87.136719 174.320312 C 87.21875 169.574219 87.5625 164.914062 88.1875 160.378906 C 76.265625 164.355469 68.859375 169.335938 67.269531 174.320312 Z M 95.679688 219.847656 C 92.628906 212.695312 90.308594 204.914062 88.859375 196.621094 C 79.96875 193.875 72.765625 190.441406 68.230469 186.402344 C 71.609375 199.707031 81.570312 211.429688 95.679688 219.847656 Z M 88.859375 156.042969 C 90.308594 147.765625 92.628906 139.96875 95.679688 132.820312 C 81.570312 141.234375 71.609375 152.972656 68.230469 166.269531 C 72.765625 162.222656 79.96875 158.789062 88.859375 156.042969 Z M 121.597656 253.136719 C 112.402344 246.886719 104.488281 237.503906 98.570312 225.984375 C 87.066406 220.066406 77.679688 212.164062 71.4375 202.949219 C 79.59375 226.394531 98.175781 244.976562 121.597656 253.136719 Z M 98.570312 126.679688 C 104.488281 115.175781 112.402344 105.792969 121.597656 99.550781 C 98.175781 107.6875 79.59375 126.269531 71.4375 149.714844 C 77.679688 140.519531 87.066406 132.605469 98.570312 126.679688 Z M 115.285156 198.257812 C 114.640625 191.894531 114.28125 185.238281 114.210938 178.347656 L 91.160156 178.347656 C 91.261719 183.585938 91.691406 188.683594 92.441406 193.617188 C 98.992188 195.511719 106.667969 197.101562 115.285156 198.257812 Z M 114.210938 174.320312 C 114.28125 167.445312 114.640625 160.773438 115.285156 154.425781 C 106.667969 155.582031 98.992188 157.171875 92.441406 159.066406 C 91.691406 164 91.261719 169.097656 91.160156 174.320312 Z M 115.730469 150.414062 C 117.007812 140.019531 119.042969 130.570312 121.683594 122.378906 C 114.453125 124.136719 107.679688 126.59375 101.535156 129.628906 C 97.800781 137.191406 94.933594 145.667969 93.175781 154.800781 C 100.019531 152.957031 107.660156 151.488281 115.730469 150.414062 Z M 135.335938 255.503906 C 130.679688 250.863281 126.5625 243.753906 123.238281 234.789062 C 116.691406 233.335938 110.492188 231.34375 104.707031 228.890625 C 112.523438 241.972656 123.1875 251.5 135.335938 255.503906 Z M 123.238281 117.886719 C 126.5625 108.917969 130.679688 101.800781 135.335938 97.160156 C 123.1875 101.171875 112.523438 110.691406 104.707031 123.777344 C 110.492188 121.320312 116.691406 119.320312 123.238281 117.886719 Z M 146.203125 115.246094 L 146.203125 95.261719 C 139.261719 96.582031 132.878906 104.617188 127.980469 116.957031 C 133.835938 115.929688 139.945312 115.347656 146.203125 115.246094 Z M 146.203125 148.3125 L 146.203125 119.273438 C 139.347656 119.390625 132.707031 120.113281 126.34375 121.355469 C 123.527344 129.542969 121.328125 139.257812 119.933594 149.898438 C 128.441406 148.933594 137.347656 148.402344 146.203125 148.3125 Z M 146.203125 174.320312 L 146.203125 152.359375 C 136.597656 152.425781 127.625 152.972656 119.429688 153.910156 C 118.71875 160.429688 118.308594 167.292969 118.238281 174.320312 Z M 146.203125 200.320312 L 146.203125 178.347656 L 118.238281 178.347656 C 118.308594 185.394531 118.71875 192.234375 119.429688 198.769531 C 127.625 199.707031 136.597656 200.257812 146.203125 200.320312 Z M 146.203125 233.414062 L 146.203125 204.355469 C 137.347656 204.28125 128.441406 203.753906 119.933594 202.78125 C 121.328125 213.425781 123.527344 223.132812 126.34375 231.328125 C 132.707031 232.574219 139.347656 233.292969 146.203125 233.414062 Z M 168.476562 116.957031 C 163.5625 104.617188 157.175781 96.582031 150.234375 95.261719 L 150.234375 115.246094 C 156.511719 115.347656 162.605469 115.929688 168.476562 116.957031 Z M 150.269531 257.417969 C 157.210938 256.082031 163.574219 248.015625 168.476562 235.714844 C 162.605469 236.734375 156.511719 237.3125 150.234375 237.433594 L 150.234375 257.210938 L 146.203125 257.210938 L 146.203125 237.433594 C 139.945312 237.3125 133.835938 236.734375 127.980469 235.714844 C 133.355469 249.226562 140.503906 257.621094 148.222656 257.621094 C 148.902344 257.621094 149.585938 257.550781 150.269531 257.417969 Z M 170.09375 231.328125 C 172.910156 223.132812 175.128906 213.425781 176.527344 202.78125 C 168.011719 203.753906 159.125 204.28125 150.234375 204.355469 L 150.234375 233.414062 C 157.109375 233.292969 163.765625 232.574219 170.09375 231.328125 Z M 176.527344 149.898438 C 175.128906 139.257812 172.910156 129.542969 170.09375 121.355469 C 163.765625 120.113281 157.109375 119.390625 150.234375 119.273438 L 150.234375 148.3125 C 159.125 148.402344 168.011719 148.933594 176.527344 149.898438 Z M 178.214844 178.347656 L 150.234375 178.347656 L 150.234375 200.320312 C 159.855469 200.257812 168.832031 199.707031 177.019531 198.769531 C 177.738281 192.234375 178.152344 185.394531 178.214844 178.347656 Z M 150.234375 174.320312 L 178.214844 174.320312 C 178.152344 167.292969 177.738281 160.429688 177.019531 153.910156 C 168.832031 152.972656 159.855469 152.425781 150.234375 152.359375 Z M 161.117188 255.503906 C 173.269531 251.5 183.933594 241.972656 191.746094 228.890625 C 185.960938 231.359375 179.769531 233.335938 173.214844 234.789062 C 169.890625 243.753906 165.777344 250.863281 161.117188 255.503906 Z M 194.921875 223.035156 C 198.660156 215.476562 201.503906 206.992188 203.285156 197.867188 C 196.441406 199.707031 188.792969 201.175781 180.726562 202.253906 C 179.445312 212.644531 177.414062 222.113281 174.769531 230.285156 C 182.007812 228.527344 188.777344 226.070312 194.921875 223.035156 Z M 203.285156 154.800781 C 201.503906 145.667969 198.660156 137.191406 194.921875 129.628906 C 188.777344 126.59375 182.007812 124.136719 174.769531 122.378906 C 177.414062 130.570312 179.445312 140.019531 180.726562 150.414062 C 188.792969 151.488281 196.441406 152.957031 203.285156 154.800781 Z M 205.296875 178.347656 L 182.246094 178.347656 C 182.175781 185.238281 181.816406 191.894531 181.167969 198.257812 C 189.785156 197.101562 197.464844 195.511719 204.019531 193.617188 C 204.765625 188.683594 205.191406 183.585938 205.296875 178.347656 Z M 182.246094 174.320312 L 205.296875 174.320312 C 205.191406 169.097656 204.765625 164 204.019531 159.066406 C 197.464844 157.171875 189.785156 155.582031 181.167969 154.425781 C 181.816406 160.773438 182.175781 167.445312 182.246094 174.320312 Z M 225.019531 202.949219 C 218.777344 212.164062 209.390625 220.066406 197.890625 225.984375 C 191.96875 237.503906 184.054688 246.886719 174.851562 253.136719 C 198.285156 244.976562 216.863281 226.394531 225.019531 202.949219 Z M 197.890625 126.679688 C 209.390625 132.605469 218.777344 140.519531 225.019531 149.714844 C 216.863281 126.269531 198.285156 107.6875 174.851562 99.550781 C 184.054688 105.792969 191.96875 115.175781 197.890625 126.679688 Z M 228.226562 186.402344 C 223.691406 190.441406 216.488281 193.875 207.597656 196.621094 C 206.152344 204.914062 203.828125 212.710938 200.769531 219.847656 C 214.886719 211.429688 224.851562 199.707031 228.226562 186.402344 Z M 207.597656 156.042969 C 216.488281 158.789062 223.691406 162.222656 228.226562 166.269531 C 224.851562 152.972656 214.886719 141.234375 200.769531 132.820312 C 203.828125 139.96875 206.152344 147.765625 207.597656 156.042969 Z M 229.179688 178.347656 L 209.320312 178.347656 C 209.238281 183.105469 208.878906 187.765625 208.261719 192.285156 C 220.175781 188.332031 227.578125 183.34375 229.179688 178.347656 Z M 209.320312 174.320312 L 229.179688 174.320312 C 227.597656 169.335938 220.175781 164.355469 208.261719 160.378906 C 208.878906 164.914062 209.238281 169.574219 209.320312 174.320312 Z M 233.535156 174.320312 L 233.535156 178.347656 L 233.480469 178.347656 C 232.40625 224.488281 194.597656 261.648438 148.222656 261.648438 C 101.859375 261.648438 64.046875 224.488281 62.957031 178.347656 L 62.90625 178.347656 L 62.90625 174.320312 L 62.957031 174.320312 C 64.027344 128.21875 101.859375 91.019531 148.222656 91.019531 C 194.597656 91.019531 232.425781 128.21875 233.480469 174.320312 Z M 121.683594 230.285156 C 119.042969 222.113281 117.007812 212.644531 115.730469 202.253906 C 107.660156 201.175781 100.019531 199.707031 93.175781 197.867188 C 94.933594 206.992188 97.800781 215.476562 101.535156 223.035156 C 107.679688 226.070312 114.453125 228.527344 121.683594 230.285156 Z M 173.214844 117.886719 C 179.769531 119.320312 185.960938 121.320312 191.746094 123.777344 C 183.933594 110.691406 173.269531 101.171875 161.117188 97.160156 C 165.777344 101.800781 169.890625 108.917969 173.214844 117.886719 " fill-opacity="1" fill-rule="nonzero"/><path fill="#c8cdd2" d="M 191.746094 228.890625 C 183.933594 241.972656 173.269531 251.5 161.117188 255.503906 C 165.777344 250.863281 169.890625 243.753906 173.214844 234.789062 C 179.769531 233.335938 185.960938 231.359375 191.746094 228.890625 " fill-opacity="1" fill-rule="nonzero"/><path fill="#ecf0f0" d="M 191.746094 123.777344 C 185.960938 121.320312 179.769531 119.320312 173.214844 117.886719 C 169.890625 108.917969 165.777344 101.800781 161.117188 97.160156 C 173.269531 101.171875 183.933594 110.691406 191.746094 123.777344 " fill-opacity="1" fill-rule="nonzero"/><path fill="#c8cdd2" d="M 170.09375 121.355469 C 172.910156 129.542969 175.128906 139.257812 176.527344 149.898438 C 168.011719 148.933594 159.125 148.402344 150.234375 148.3125 L 150.234375 119.273438 C 157.109375 119.390625 163.765625 120.113281 170.09375 121.355469 " fill-opacity="1" fill-rule="nonzero"/><path fill="#2c3d50" d="M 154.929688 76.203125 C 154.929688 72.5 151.921875 69.496094 148.222656 69.496094 C 144.519531 69.496094 141.507812 72.5 141.507812 76.203125 C 141.507812 79.902344 144.519531 82.910156 148.222656 82.910156 C 151.921875 82.910156 154.929688 79.902344 154.929688 76.203125 Z M 148.222656 62.667969 C 155.683594 62.667969 161.753906 68.742188 161.753906 76.203125 C 161.753906 83.667969 155.683594 89.738281 148.222656 89.738281 C 140.753906 89.738281 134.683594 83.667969 134.683594 76.203125 C 134.683594 68.742188 140.753906 62.667969 148.222656 62.667969 " fill-opacity="1" fill-rule="nonzero"/><path fill="#2c3d50" d="M 149.925781 1.863281 L 149.925781 58.402344 C 149.925781 59.34375 149.160156 60.109375 148.222656 60.109375 C 147.277344 60.109375 146.511719 59.34375 146.511719 58.402344 L 146.511719 1.863281 C 146.511719 0.921875 147.277344 0.15625 148.222656 0.15625 C 149.160156 0.15625 149.925781 0.921875 149.925781 1.863281 " fill-opacity="1" fill-rule="nonzero"/><path fill="#c8cdd2" d="M 146.203125 178.347656 L 146.203125 200.320312 C 136.597656 200.257812 127.625 199.707031 119.429688 198.769531 C 118.71875 192.234375 118.308594 185.394531 118.238281 178.347656 L 146.203125 178.347656 " fill-opacity="1" fill-rule="nonzero"/><path fill="#c8cdd2" d="M 115.730469 202.253906 C 117.007812 212.644531 119.042969 222.113281 121.683594 230.285156 C 114.453125 228.527344 107.679688 226.070312 101.535156 223.035156 C 97.800781 215.476562 94.933594 206.992188 93.175781 197.867188 C 100.019531 199.707031 107.660156 201.175781 115.730469 202.253906 " fill-opacity="1" fill-rule="nonzero"/><path fill="#c8cdd2" d="M 115.285156 154.425781 C 114.640625 160.773438 114.28125 167.445312 114.210938 174.320312 L 91.160156 174.320312 C 91.261719 169.097656 91.691406 164 92.441406 159.066406 C 98.992188 157.171875 106.667969 155.582031 115.285156 154.425781 " fill-opacity="1" fill-rule="nonzero"/><path fill="#c8cdd2" d="M 68.230469 166.269531 C 71.609375 152.972656 81.570312 141.234375 95.679688 132.820312 C 92.628906 139.96875 90.308594 147.765625 88.859375 156.042969 C 79.96875 158.789062 72.765625 162.222656 68.230469 166.269531 " fill-opacity="1" fill-rule="nonzero"/><g clip-path="url(#0566461909)"><path fill="#f1c30f" d="M 265.898438 133.996094 L 251.703125 136.335938 L 249.371094 150.53125 L 247.027344 136.335938 L 232.835938 133.996094 L 247.027344 131.660156 L 249.371094 117.46875 L 251.703125 131.660156 L 265.898438 133.996094 " fill-opacity="1" fill-rule="nonzero"/></g><path fill="#f1c30f" d="M 249.367188 101.546875 L 228.148438 105.042969 L 224.652344 126.261719 L 221.160156 105.042969 L 199.9375 101.546875 L 221.160156 98.054688 L 224.652344 76.835938 L 228.148438 98.054688 L 249.367188 101.546875 " fill-opacity="1" fill-rule="nonzero"/><path fill="#f1c30f" d="M 246.457031 236.890625 L 234.765625 238.816406 L 232.835938 250.507812 L 230.910156 238.816406 L 219.210938 236.890625 L 230.910156 234.960938 L 232.835938 223.261719 L 234.765625 234.960938 L 246.457031 236.890625 " fill-opacity="1" fill-rule="nonzero"/><path fill="#f1c30f" d="M 239.664062 272.550781 L 216.234375 276.410156 L 212.375 299.84375 L 208.511719 276.410156 L 185.082031 272.550781 L 208.511719 268.691406 L 212.375 245.257812 L 216.234375 268.691406 L 239.664062 272.550781 " fill-opacity="1" fill-rule="nonzero"/><g clip-path="url(#c194aa716d)"><path fill="#f1c30f" d="M 62.90625 149.546875 L 51.207031 151.46875 L 49.28125 163.164062 L 47.355469 151.46875 L 35.660156 149.546875 L 47.355469 147.617188 L 49.28125 135.925781 L 51.207031 147.617188 L 62.90625 149.546875 " fill-opacity="1" fill-rule="nonzero"/></g></svg>